<svg xmlns="http://www.w3.org/2000/svg" viewBox="0 0 120 120" role="img" aria-label="Shark companion">
  <rect width="120" height="120" rx="24" fill="#eff6ff"/>
  <path d="M28 58c14-20 38-24 54-16 8 4 16 10 24 14-10 6-20 12-30 14-10 2-22 0-34-4-6-2-10-4-14-8z" fill="#60a5fa"/>
  <path d="M46 46l16 12-16 10z" fill="#f8fafc"/>
  <circle cx="50" cy="54" r="4" fill="#111827"/>
  <circle cx="66" cy="54" r="4" fill="#111827"/>
  <path d="M38 74c8 6 20 10 30 10" stroke="#1d4ed8" stroke-width="4" fill="none" stroke-linecap="round"/>
  <path d="M28 42c10-8 18-10 30-10" stroke="#1d4ed8" stroke-width="4" fill="none" stroke-linecap="round"/>
</svg>